<svg width="48" height="49" viewBox="0 0 48 49" fill="none" xmlns="http://www.w3.org/2000/svg">
<path d="M10.5 16.25C10.5 15.6533 10.7371 15.081 11.159 14.659C11.581 14.2371 12.1533 14 12.75 14H35.25C35.8467 14 36.419 14.2371 36.841 14.659C37.2629 15.081 37.5 15.6533 37.5 16.25V32.75C37.5 33.3467 37.2629 33.919 36.841 34.341C36.419 34.7629 35.8467 35 35.25 35C34.6533 35 34.081 34.7629 33.659 34.341C33.2371 33.919 33 33.3467 33 32.75V18.5H12.75C12.1533 18.5 11.581 18.2629 11.159 17.841C10.7371 17.419 10.5 16.8467 10.5 16.25ZM44.25 11V38C44.25 38.9946 43.8549 39.9484 43.1516 40.6516C42.4484 41.3549 41.4946 41.75 40.5 41.75H27.9862C27.5122 41.7499 27.0504 41.6001 26.6665 41.322C26.2827 41.0439 25.9965 40.6516 25.8488 40.2013C25.378 38.8943 24.5156 37.7645 23.379 36.9658C22.2425 36.1672 20.8872 35.7386 19.4981 35.7386C18.109 35.7386 16.7538 36.1672 15.6172 36.9658C14.4807 37.7645 13.6182 38.8943 13.1475 40.2013C13 40.651 12.7143 41.0428 12.3312 41.3209C11.9481 41.599 11.4871 41.7491 11.0138 41.75H7.5C6.50544 41.75 5.55161 41.3549 4.84835 40.6516C4.14509 39.9484 3.75 38.9946 3.75 38V11C3.75 10.0054 4.14509 9.05161 4.84835 8.34835C5.55161 7.64509 6.50544 7.25 7.5 7.25H40.5C41.4946 7.25 42.4484 7.64509 43.1516 8.34835C43.8549 9.05161 44.25 10.0054 44.25 11ZM19.5 31.25C20.0933 31.25 20.6734 31.0741 21.1667 30.7444C21.6601 30.4148 22.0446 29.9462 22.2716 29.3981C22.4987 28.8499 22.5581 28.2467 22.4424 27.6647C22.3266 27.0828 22.0409 26.5482 21.6213 26.1287C21.2018 25.7091 20.6672 25.4234 20.0853 25.3076C19.5033 25.1919 18.9001 25.2513 18.3519 25.4784C17.8038 25.7054 17.3352 26.0899 17.0056 26.5833C16.6759 27.0766 16.5 27.6567 16.5 28.25C16.5 29.0456 16.8161 29.8087 17.3787 30.3713C17.9413 30.9339 18.7044 31.25 19.5 31.25ZM39.75 11.75H8.25V37.25H9.5475C10.4938 35.4631 11.903 33.9633 13.6275 32.9075C12.7501 31.803 12.2019 30.4735 12.046 29.0716C11.89 27.6697 12.1326 26.2522 12.7458 24.9819C13.359 23.7116 14.318 22.6399 15.5127 21.89C16.7075 21.1401 18.0894 20.7423 19.5 20.7423C20.9106 20.7423 22.2925 21.1401 23.4873 21.89C24.682 22.6399 25.641 23.7116 26.2542 24.9819C26.8674 26.2522 27.11 27.6697 26.954 29.0716C26.7981 30.4735 26.2499 31.803 25.3725 32.9075C27.097 33.9633 28.5062 35.4631 29.4525 37.25H39.75V11.75Z" fill="#8B5CF6"/>
</svg>
