<svg width="48" height="49" viewBox="0 0 48 49" fill="none" xmlns="http://www.w3.org/2000/svg">
<path d="M32.3044 13.4188C30.8019 10.1582 28.2305 7.50876 25.0163 5.90943C21.8021 4.3101 18.138 3.85687 14.6309 4.62483C11.1239 5.39279 7.98447 7.33586 5.7328 10.1321C3.48112 12.9283 2.25233 16.4099 2.25 20.0001V32.0001C2.25 32.9946 2.64509 33.9485 3.34835 34.6517C4.05161 35.355 5.00544 35.7501 6 35.7501H15.7687C17.0494 38.4406 19.0656 40.7136 21.584 42.3063C24.1024 43.899 27.0202 44.7462 30 44.7501H42C42.9946 44.7501 43.9484 44.355 44.6516 43.6517C45.3549 42.9485 45.75 41.9946 45.75 41.0001V29.0001C45.7502 25.2221 44.3923 21.5699 41.9241 18.7096C39.4559 15.8493 36.0417 13.9716 32.3044 13.4188ZM6.75 20.0001C6.75 17.775 7.4098 15.6 8.64597 13.7499C9.88213 11.8999 11.6391 10.4579 13.6948 9.60642C15.7505 8.75494 18.0125 8.53215 20.1948 8.96623C22.3771 9.40032 24.3816 10.4718 25.955 12.0451C27.5283 13.6185 28.5998 15.623 29.0338 17.8053C29.4679 19.9876 29.2451 22.2496 28.3936 24.3053C27.5422 26.3609 26.1002 28.1179 24.2502 29.3541C22.4001 30.5903 20.225 31.2501 18 31.2501H6.75V20.0001ZM41.25 40.2501H30C28.2001 40.248 26.4269 39.815 24.8285 38.9875C23.2301 38.1599 21.8531 36.9618 20.8125 35.4932C24.7216 34.787 28.2191 32.6286 30.603 29.4511C32.987 26.2735 34.081 22.3119 33.6656 18.3613C35.88 19.1245 37.8009 20.5597 39.1605 22.4668C40.5201 24.374 41.2506 26.6579 41.25 29.0001V40.2501Z" fill="#8B5CF6"/>
</svg>
