<svg width="48" height="49" viewBox="0 0 48 49" fill="none" xmlns="http://www.w3.org/2000/svg">
<path d="M24 4.25C19.9949 4.25 16.0798 5.43764 12.7497 7.66274C9.41962 9.88784 6.82412 13.0505 5.29145 16.7507C3.75877 20.4509 3.35776 24.5225 4.13911 28.4506C4.92046 32.3787 6.84908 35.9869 9.6811 38.8189C12.5131 41.6509 16.1213 43.5796 20.0494 44.3609C23.9775 45.1423 28.0491 44.7412 31.7493 43.2086C35.4496 41.6759 38.6122 39.0804 40.8373 35.7503C43.0624 32.4202 44.25 28.5051 44.25 24.5C44.2441 19.1312 42.1087 13.984 38.3123 10.1877C34.516 6.39134 29.3688 4.25596 24 4.25ZM24 8.75C26.9141 8.74768 29.7711 9.55803 32.25 11.09V14.09L28.4606 18.5L23.1225 19.2219L19.6163 16.925C19.2073 16.6396 18.7456 16.4386 18.258 16.3338C17.7704 16.229 17.2669 16.2225 16.7768 16.3147C16.2867 16.4069 15.8199 16.5959 15.4037 16.8707C14.9876 17.1455 14.6304 17.5005 14.3531 17.915L10.4269 23.7838C10.017 24.3938 9.79654 25.1113 9.79313 25.8462L9.76313 31.2256C8.62967 28.8255 8.12118 26.1778 8.28491 23.5285C8.44864 20.8792 9.27927 18.3143 10.6996 16.072C12.12 13.8296 14.0841 11.9826 16.4093 10.7026C18.7346 9.42248 21.3457 8.75083 24 8.75ZM12.8269 35.5887C13.2682 35.2395 13.6253 34.7955 13.8717 34.2894C14.1181 33.7834 14.2474 33.2284 14.25 32.6656L14.2875 26.1031L17.6756 21.0406L20.7919 23.0806C21.5632 23.621 22.5101 23.85 23.4431 23.7219L29.3438 22.9231C30.2549 22.7998 31.089 22.3461 31.6875 21.6481L35.8425 16.8125C36.2517 16.3336 36.5347 15.7599 36.6656 15.1437C38.0325 16.9896 38.978 19.1128 39.4354 21.3636C39.8928 23.6145 39.8511 25.9383 39.3131 28.1712L37.1869 26.2269C36.6591 25.7467 36.0059 25.4264 35.3031 25.3033C34.6003 25.1801 33.8771 25.2592 33.2175 25.5312L27.5081 27.905C26.9111 28.1551 26.3886 28.5547 25.9909 29.0654C25.5932 29.5761 25.3338 30.1806 25.2375 30.8206L24.7894 33.8581C24.6549 34.7713 24.8618 35.702 25.3707 36.4721C25.8796 37.2422 26.6547 37.7976 27.5475 38.0319L30.5475 38.8156C27.6197 40.1576 24.3502 40.5673 21.1819 39.9891C18.0135 39.4109 15.0994 37.8728 12.8344 35.5831L12.8269 35.5887ZM34.7213 36.0238L34.4156 35.7181C33.9449 35.2468 33.3573 34.909 32.7131 34.7394L29.3381 33.8544L29.625 31.9025L34.5 29.8756L37.5 32.6112C36.7363 33.872 35.8011 35.0205 34.7213 36.0238Z" fill="#8B5CF6"/>
</svg>
