<svg width="384" height="768" viewBox="0 0 384 768" fill="none" xmlns="http://www.w3.org/2000/svg">
<path d="M228.208 416.762C235.424 440.892 241.271 465.37 245.924 490.108C255.313 540.031 257.881 590.445 255.409 641.114C254.238 665.115 251.623 689.018 246.254 712.48C242.902 727.125 238.08 741.323 229.294 753.793C223.326 762.263 215.676 767.603 204.812 767.541C193.307 767.476 185.851 761.194 180.307 752.009C174.182 741.861 170.797 730.678 168.644 719.069C166.012 704.881 164.087 690.61 163.786 676.171C163.444 659.839 162.564 643.472 163.25 627.177C164.299 602.233 166.294 577.322 168.265 552.427C169.448 537.498 171.124 522.598 172.99 507.737C174.785 493.45 176.89 479.192 179.264 464.99C181.764 450.033 184.789 435.164 187.457 420.234C187.778 418.438 187.696 416.368 187.134 414.643C177.833 386.134 167.372 358.05 154.873 330.794C145.187 309.672 135.239 288.654 124.773 267.912C106.245 231.19 85.7066 195.61 63.2512 161.134C45.8321 134.39 27.1596 108.584 7.3781 83.5637C5.4864 81.1709 3.56344 78.6469 2.38158 75.8725C-2.84736 63.5973 5.95427 49.1436 19.4912 46.8467C21.8659 46.4438 25.1026 47.257 26.9993 48.729C30.8867 51.7461 34.5291 55.2779 37.584 59.1447C59.9719 87.4833 81.2988 116.601 100.859 146.993C125.513 185.3 148.139 224.756 168.005 265.787C179.727 289.997 190.894 314.445 200.598 339.553C201.344 341.485 201.198 344.348 204.688 345.338C207.639 352.755 210.111 359.744 212.492 366.764C215.92 376.874 219.393 386.971 222.631 397.143C224.693 403.618 226.363 410.218 228.208 416.762ZM204.229 675.999C204.543 676.737 204.857 677.475 205.512 679.015C206.316 677.163 206.885 676.172 207.188 675.104C209.072 668.458 210.988 661.818 212.719 655.13C214.737 647.333 216.848 639.563 216.922 631.383C217.061 616.212 217.81 601.036 217.567 585.873C217.235 565.135 216.256 544.404 212.036 523.994C211.674 522.242 211.161 520.521 210.718 518.786C210.269 518.813 209.82 518.84 209.371 518.867C209.176 520.674 208.912 522.478 208.798 524.29C208.319 531.957 208.163 539.656 207.385 547.291C204.247 578.089 202.715 608.959 203.081 639.911C203.219 651.625 203.803 663.334 204.229 675.999Z" fill="#D84773"/>
<path d="M171.393 5.38822C182.771 1.11157 193.902 -0.578692 205.602 1.86163C224.217 5.74435 237.85 16.607 247.931 32.1439C259.673 50.2408 266.023 70.4118 266.741 91.8813C267.076 101.904 265.399 112.233 263.066 122.048C259.862 135.523 254.479 148.35 246.348 159.755C232.694 178.909 214.411 189.505 190.578 188.14C169.528 186.935 153.05 176.72 141.106 159.494C124.653 135.764 118.792 109.412 122.093 80.721C124.277 61.7363 130.936 44.7271 141.87 29.1765C149.386 18.4874 159.237 10.902 171.393 5.38822ZM168.662 93.2492C169.033 103.496 170.993 113.459 174.631 123.009C176.048 126.727 177.937 130.517 180.512 133.49C188.147 142.303 198.528 143.516 206.615 133.972C209.884 130.113 212.503 125.358 214.217 120.578C219.59 105.589 220.371 90.1926 216.193 74.7444C214.026 66.7342 211.164 58.9951 204.575 53.3142C198.7 48.2494 190.114 48.1693 184.077 53.0499C178.314 57.7086 174.783 63.7958 173.039 70.8168C171.286 77.8775 170.134 85.0884 168.662 93.2492Z" fill="#D84773"/>
<path d="M228.453 416.427C226.362 410.218 224.692 403.618 222.631 397.143C219.393 386.971 215.92 376.874 212.491 366.764C210.111 359.744 207.639 352.755 205.09 345.31C219.385 295.794 236.656 247.811 258.444 201.482C275.066 166.138 293.842 132.022 315.083 99.2903C323.754 85.9288 333.202 73.0757 342.248 59.9573C348.669 50.6458 357.405 47.5275 368.285 49.9122C377.338 51.8964 384.555 60.444 383.359 68.8354C382.847 72.425 380.922 76.1265 378.736 79.1116C361.929 102.055 346.257 125.741 331.893 150.289C306.915 192.975 286.03 237.615 268.574 283.896C256.505 315.898 246.612 348.581 237.766 381.597C234.837 392.53 232.154 403.53 229.343 414.495C229.202 415.047 228.917 415.561 228.453 416.427Z" fill="#B02A59"/>
</svg>
