<svg width="570" height="610" viewBox="0 0 570 610" fill="none" xmlns="http://www.w3.org/2000/svg">
<path d="M276.339 294.095C280.71 292.843 285.113 291.693 289.446 290.321C308.569 284.263 328.086 281.008 348.161 282.639C365.025 284.01 380.639 289.232 394.651 299.009C398.835 301.929 403.374 304.336 408.027 307.335C406.833 310.162 409.202 311.027 410.298 312.375C413.887 316.79 417.812 320.963 421.058 325.614C423.642 329.317 425.271 333.673 427.602 337.572C429.618 340.944 432.026 344.08 434.26 347.32C434.477 349.932 434.198 352.706 434.989 355.13C442.118 376.985 442.185 399.372 440.055 421.885C437 454.19 423.281 482.297 405.397 508.673C394.467 524.793 381.825 539.457 367.522 552.662C339.608 578.433 307.522 596.52 270.348 604.861C245.912 610.343 221.372 610.536 196.833 604.985C182.746 601.799 168.997 597.709 156.386 590.524C125.476 572.915 107.351 546.815 103.529 510.941C101.303 490.041 104.132 469.884 111.266 450.36C116.201 436.853 121.91 423.614 127.701 410.444C133.653 396.909 140.336 383.697 146.316 370.172C153.16 354.694 159.035 338.849 161.776 322.026C168.591 280.195 158.998 242.683 132.057 209.891C107.496 179.997 75.9811 160.207 40.0247 147.068C32.1106 144.176 24.0037 141.818 16.0532 139.021C5.77268 135.405 0.0425759 127.296 0.11394 116.851C0.19296 105.289 7.07868 95.1 17.0289 91.784C21.3464 90.3451 25.6925 90.3127 30.0423 91.5261C57.3452 99.1421 83.3532 109.963 107.417 124.937C131.833 140.131 153.635 158.549 171.424 181.414C189.48 204.622 202.718 230.232 208.652 259.193C210.919 270.255 211.728 281.618 213.144 293.91C213.071 299.959 213.199 304.948 212.999 309.923C212.804 314.78 212.275 319.624 211.796 325.694C215.206 324.037 217.555 322.914 219.889 321.758C236.965 313.302 254.042 304.848 271.103 296.363C272.448 295.694 273.678 294.793 275.125 294.221C275.651 294.297 276.014 294.153 276.382 294.037C276.386 294.065 276.339 294.095 276.339 294.095ZM150.906 492.476C151.292 497.768 151.186 503.153 152.167 508.332C154.104 518.565 158.683 527.732 165.178 535.854C165.959 536.831 167.768 536.979 169.04 538.39C170.141 539.814 171.008 541.538 172.379 542.615C183.769 551.56 197.269 555.109 211.2 557.145C224.711 559.119 238.3 558.943 251.868 557.33C271.36 555.014 289.547 548.834 306.323 538.646C322.537 528.801 336.345 516.19 348.488 501.609C363.45 483.644 376.151 464.318 384.679 442.448C392.678 421.933 396.476 401.113 387.867 378.848C386.993 377.182 386.406 375.26 385.196 373.892C378.393 366.204 371.279 358.759 362.891 352.82C358.673 349.834 354.88 345.454 348.482 345.226C346.355 344.45 344.282 343.431 342.092 342.941C334.268 341.194 326.473 338.907 318.542 338.151C304.809 336.841 291.554 339.715 278.728 344.801C263.891 350.685 249.83 358.047 236.699 367.08C219.826 378.687 203.129 390.554 186.503 402.515C183.945 404.355 181.544 406.981 180.146 409.783C171.42 427.267 161.988 444.453 156.206 463.265C153.383 472.446 151.162 481.744 150.906 492.476Z" fill="#E97D43"/>
<path d="M434.639 347.222C432.024 344.08 429.617 340.944 427.601 337.572C425.269 333.673 423.64 329.316 421.056 325.614C417.81 320.963 413.885 316.79 410.296 312.375C409.2 311.026 406.831 310.161 408.453 307.374C437.118 288.826 466.592 272.52 498.893 261.909C509.672 258.368 520.642 255.67 532.052 255.424C538.391 255.287 544.733 255.651 550.663 258.231C563.15 263.666 568.523 273.968 569.476 286.935C570.371 299.097 569.153 311.144 565.905 322.899C559.596 345.734 550.84 367.693 540.605 388.979C522.346 426.952 508.377 466.606 493.79 506.033C483.799 533.039 473.738 560.018 463.672 586.996C461.014 594.12 457.725 600.737 450.383 604.358C441.374 608.8 427.589 608.831 418.375 598.177C414.373 593.549 413.323 587.825 415.007 581.907C416.477 576.745 418.395 571.712 420.087 566.612C432.361 529.623 444.644 492.637 456.89 455.638C467.993 422.089 479.323 388.615 493.856 356.367C500.322 342.021 507.529 328.011 514.361 313.83C515.388 311.698 516.201 309.461 517.487 306.374C515.294 306.814 514.074 306.734 513.256 307.271C502.577 314.273 490.652 318.633 478.913 323.283C463.293 329.47 449.188 338.323 434.639 347.222Z" fill="#D85C36"/>
<path d="M180.937 135.764C172.781 120.144 168.407 103.912 168.655 86.716C169.04 59.9949 177.113 36.1218 196.454 16.9492C218.364 -4.77137 254.621 -4.39124 276.196 17.6484C286.488 28.162 292.946 40.8742 297.491 54.7339C307.986 86.7354 302.605 116.556 284.69 144.314C276.345 157.243 264.777 166.501 249.326 170.054C229.778 174.548 212.557 170.049 197.595 156.748C190.939 150.831 185.69 143.757 180.937 135.764ZM254.286 94.6905C255.91 86.811 254.879 79.0202 253.194 71.3281C251.669 64.3634 249.675 57.4876 244.073 52.4815C239.006 47.9524 233.957 47.8178 228.569 51.9134C224.086 55.3207 221.476 60.0861 220.114 65.3142C218.624 71.0335 217.344 76.9389 217.064 82.8154C216.579 93.017 217.635 103.132 222.034 112.606C224.222 117.32 227.67 120.749 232.217 123.177C234.602 124.45 236.823 124.498 239.314 123.298C245.019 120.551 248.817 116.097 250.695 110.215C252.205 105.487 253.02 100.536 254.286 94.6905Z" fill="#E97D43"/>
<path d="M274.961 294.001C273.677 294.794 272.447 295.695 271.102 296.364C254.041 304.849 236.963 313.303 219.887 321.759C217.554 322.915 215.205 324.037 211.795 325.695C212.274 319.624 212.803 314.781 212.998 309.924C213.197 304.949 213.07 299.96 213.096 294.42C214.266 292.98 215.717 292.312 216.541 291.183C233.186 268.392 250.031 245.74 266.267 222.658C280.646 202.216 293.191 180.594 304.28 158.18C314.265 137.997 322.842 117.232 327.391 95.036C328.7 88.6472 329.73 82.1858 330.553 75.7148C332.75 58.4464 346.549 48.605 363.305 52.5316C372.723 54.7388 379.105 62.7901 378.355 72.8548C377.628 82.6069 376.474 92.3883 374.615 101.983C368.911 131.424 358.061 159.081 344.789 185.856C327.573 220.588 306.229 252.708 283.36 283.87C281.023 287.055 278.534 290.13 276.227 293.676C276.338 294.096 276.385 294.066 276.027 293.991C275.433 293.944 275.197 293.973 274.961 294.001Z" fill="#D85C36"/>
<path d="M387.876 379.277C386.37 380.404 384.702 380.889 383.359 381.837C362.987 396.209 342.503 410.428 322.351 425.106C280.808 455.367 239.442 485.871 198.018 516.295C188.591 523.22 179.226 530.23 169.465 537.357C167.765 536.981 165.956 536.833 165.175 535.856C158.68 527.734 154.101 518.567 152.164 508.334C151.184 503.155 151.289 497.77 151.246 491.772C165.384 480.703 179.222 470.398 192.966 459.968C238.167 425.667 283.196 391.133 329.747 358.666C336.018 354.292 342.484 350.199 348.86 345.976C354.877 345.456 358.671 349.836 362.888 352.822C371.277 358.761 378.39 366.206 385.193 373.894C386.403 375.262 386.99 377.184 387.876 379.277Z" fill="#D85C36"/>
</svg>
