<svg width="530" height="604" viewBox="0 0 530 604" fill="none" xmlns="http://www.w3.org/2000/svg">
<path d="M115.751 354.444C129.461 353.837 143.172 353.229 156.883 352.623C158.408 352.555 159.933 352.493 161.458 352.429C182.036 351.559 202.615 350.713 223.19 349.777C225.051 349.693 226.886 349.026 229.507 348.814C234.199 349.272 238.14 349.945 242.034 349.74C251.449 349.243 260.844 348.372 270.241 347.578C273.424 347.309 276.587 346.816 279.76 346.425C289.306 345.735 298.854 345.064 308.398 344.351C333.789 342.454 359.183 340.587 384.568 338.611C399.456 337.452 414.35 336.306 429.205 334.796C448.435 332.841 467.628 330.516 486.839 328.374C494.258 327.547 501.67 326.559 509.112 326.039C522.104 325.132 530.195 334.009 529.996 347.755C529.926 352.585 528.515 357.156 526.076 361.449C522.631 367.513 517.724 371.55 510.869 372.652C501.802 374.109 492.686 375.298 483.562 376.356C469.876 377.944 456.171 379.385 442.461 380.762C432.749 381.737 423.012 382.47 413.291 383.37C398.809 384.709 384.336 386.141 369.851 387.449C363.371 388.035 356.875 388.469 350.381 388.878C335.664 389.804 320.941 390.645 306.224 391.574C294.376 392.322 282.532 393.127 270.69 393.966C269.176 394.073 267.688 394.537 265.158 394.895C249.372 395.326 234.614 395.67 219.86 396.123C218.66 396.16 217.483 396.941 215.769 397.309C208.774 397.564 202.308 397.926 195.838 398.2C175.843 399.05 155.848 399.865 135.316 400.703C123.258 401.092 111.737 401.474 100.215 401.849C99.2682 401.879 98.2764 401.675 97.3782 401.889C93.2475 402.87 88.736 401.99 84.9109 404.442C82.2353 402.13 79.0578 403.128 76.0949 403.254C61.0196 403.894 45.951 404.694 30.8774 405.379C27.0874 405.552 23.286 405.46 19.4925 405.578C11.3755 405.831 3.4795 398.605 1.15906 389.229C-0.904872 380.889 0.575223 373.24 5.84982 366.475C18.3883 350.394 33.0056 336.366 48.5204 323.224C50.6685 321.405 52.4666 319.17 54.9745 316.758C57.0286 315.765 58.8807 315.509 59.9875 314.462C69.9353 305.045 80.9897 297.126 92.3947 289.625C93.9694 288.589 94.7957 286.409 95.9686 284.759C97.5271 284.315 99.3167 284.226 100.61 283.376C133.158 262.012 165.824 240.823 198.105 219.06C225.45 200.625 252.346 181.521 279.427 162.693C295.015 151.856 310.552 140.944 326.157 130.131C359.579 106.974 392.992 83.803 426.522 60.8028C430.403 58.1402 434.798 55.5728 439.303 54.62C448.499 52.6752 455.27 57.557 460.101 64.9109C468.165 77.185 465.55 90.8525 453.515 99.3304C439.406 109.269 425.039 118.839 410.862 128.681C373.528 154.601 336.283 180.651 298.91 206.516C271.472 225.506 244.058 244.54 216.324 263.089C189.385 281.106 161.98 298.421 134.933 316.277C126.468 321.865 118.497 328.206 109.616 334.538C108.395 335.067 107.749 335.129 107.34 335.474C101.67 340.261 95.998 345.046 90.4109 349.93C88.9282 351.225 87.7316 352.85 85.535 355.288C88.7662 355.464 90.5909 355.716 92.4011 355.636C100.187 355.292 107.968 354.85 115.751 354.444Z" fill="#8A88B2"/>
<path d="M85.0254 404.839C88.7371 401.989 93.2487 402.87 97.3793 401.888C98.2776 401.675 99.2693 401.879 100.217 401.848C111.738 401.474 123.26 401.092 135.323 401.132C135.948 402.123 135.884 402.769 136.135 403.251C143.308 417.022 150.313 430.886 157.755 444.51C169.816 466.592 183.549 487.627 198.334 507.97C199.622 509.742 200.655 511.936 203.619 512.357C203.959 510.095 204.428 508.038 204.552 505.961C205.09 496.958 205.223 487.919 206.067 478.947C207.592 462.725 209.345 446.519 211.337 430.348C212.696 419.321 214.623 408.364 216.296 397.375C217.484 396.94 218.662 396.159 219.861 396.122C234.616 395.67 249.373 395.326 264.719 394.978C259.461 421.67 255.493 448.625 253.427 475.843C252.613 486.565 252.237 497.329 251.978 508.081C251.553 525.753 251.324 543.431 251.143 561.108C251.084 566.865 251.354 572.63 251.606 578.385C252.342 595.186 237.622 604.948 224.669 603.925C220.726 603.613 216.971 602.767 214.152 599.944C207.792 593.576 201.359 587.248 195.443 580.475C174.711 556.738 155.777 531.609 138.604 505.165C117.961 473.377 100.21 440.026 85.0254 404.839Z" fill="#5B5B8E"/>
<path d="M140.267 73.956C149.709 58.5382 161.155 45.4924 175.521 35.1768C189.815 24.9123 205.46 17.3853 223.327 17.9568C250.505 18.8261 271.733 34.8585 273.996 64.2137C276.201 92.817 268.28 118.428 250.425 140.878C241.173 152.511 230.728 162.93 218.092 170.848C204.704 179.236 190.388 184.918 174.187 183.714C151.685 182.04 133.982 170.775 127.302 147.225C122.898 131.699 124.661 116.494 128.634 101.264C131.126 91.7076 135.13 82.8227 140.267 73.956ZM200.225 75.7641C191.291 83.5212 184.173 92.7219 178.75 103.224C175.316 109.874 172.433 116.724 171.385 124.257C170.35 131.705 176.302 137.29 184.04 134.903C188.364 133.569 192.576 131.481 196.423 129.068C204.378 124.076 209.674 116.408 215.007 108.919C221.639 99.6077 226.427 89.4201 228.299 78.0187C229.386 71.4053 225.881 67.0649 219.349 67.139C212.093 67.2212 206.124 70.4711 200.225 75.7641Z" fill="#8A88B2"/>
<path d="M95.8528 284.328C94.7979 286.409 93.9716 288.589 92.3969 289.625C80.9919 297.126 69.9375 305.045 59.9897 314.462C58.8829 315.509 57.0308 315.765 55.1363 316.364C50.7459 297.973 46.1527 279.711 42.8683 261.215C36.7376 226.691 34.7639 191.793 35.8391 156.754C36.7421 127.33 40.0046 98.1415 46.5752 69.432C50.1251 53.9207 54.5828 38.6172 58.7007 23.2387C59.4438 20.4639 60.3581 17.7085 61.4825 15.068C65.1921 6.35668 71.8541 1.30153 81.2162 0.438098C90.8153 -0.447223 99.0892 2.6863 104.832 10.7094C108.204 15.4204 109.175 20.907 107.491 26.6424C105.276 34.1889 103.062 41.7364 100.797 49.2681C95.0937 68.2346 90.7833 87.5417 88.1319 107.142C83.8475 138.817 82.6844 170.646 84.6191 202.594C86.1192 227.366 88.8523 251.946 94.2384 276.194C94.8052 278.746 95.2392 281.328 95.8528 284.328Z" fill="#5B5B8E"/>
<path d="M279.726 345.963C276.591 346.815 273.427 347.308 270.244 347.577C260.848 348.372 251.452 349.243 242.037 349.739C238.143 349.944 234.203 349.272 229.904 348.591C233.374 336.325 237.009 324.391 241.149 312.636C243.697 305.402 246.911 298.395 250.02 291.371C252.477 285.82 255.817 280.949 261.758 278.526C269.781 275.254 276.997 277.739 283.407 282.377C291.997 288.593 297.814 299.514 292.429 312.416C288.514 321.798 284.498 331.137 280.642 340.543C280.017 342.068 279.991 343.841 279.726 345.963Z" fill="#7579B6"/>
<path d="M115.622 353.993C107.97 354.851 100.189 355.293 92.4032 355.637C90.593 355.717 88.7683 355.465 85.5371 355.289C87.7337 352.851 88.9303 351.226 90.413 349.931C96 345.047 101.672 340.262 107.342 335.475C107.751 335.13 108.397 335.068 109.37 334.787C111.702 340.98 113.597 347.261 115.622 353.993Z" fill="#5B5B8E"/>
</svg>
