<svg width="48" height="49" viewBox="0 0 48 49" fill="none" xmlns="http://www.w3.org/2000/svg">
<path d="M44.1381 16.7842C43.9329 15.7763 43.3823 14.8716 42.5812 14.2263C41.7802 13.5811 40.7791 13.2357 39.7506 13.2498H28.2362C29.3236 12.3734 30.1125 11.1813 30.4939 9.83776C30.8754 8.49423 30.8307 7.06546 30.366 5.74839C29.9014 4.43132 29.0396 3.29082 27.8995 2.48409C26.7595 1.67736 25.3972 1.24414 24.0006 1.24414C22.6039 1.24414 21.2417 1.67736 20.1016 2.48409C18.9615 3.29082 18.0998 4.43132 17.6351 5.74839C17.1704 7.06546 17.1258 8.49423 17.5072 9.83776C17.8887 11.1813 18.6775 12.3734 19.7649 13.2498H8.25058C7.22581 13.2523 6.23259 13.6046 5.4352 14.2483C4.6378 14.8919 4.08399 15.7885 3.86534 16.7897C3.6467 17.7908 3.77632 18.8367 4.23277 19.7542C4.68922 20.6717 5.44516 21.4059 6.37558 21.8354L6.4112 21.8523L15.3418 25.7898L11.5806 40.0623C11.1489 41.131 11.1437 42.3247 11.5662 43.3971C11.9887 44.4695 12.8066 45.3389 13.8512 45.8261C14.4454 46.1055 15.094 46.2502 15.7506 46.2498C16.5884 46.2513 17.4101 46.0188 18.123 45.5785C18.8359 45.1383 19.4117 44.5077 19.7856 43.7579L24.0006 36.4829L28.2212 43.7579C28.7389 44.8009 29.6408 45.6026 30.7373 45.9946C31.8337 46.3865 33.0395 46.3382 34.101 45.8597C35.1626 45.3812 35.9974 44.5099 36.4299 43.4288C36.8625 42.3477 36.8591 41.141 36.4206 40.0623L32.6706 25.7842L41.6012 21.8467L41.6368 21.8298C42.5759 21.4115 43.3396 20.6786 43.7962 19.7575C44.2528 18.8364 44.3737 17.7849 44.1381 16.7842ZM24.0006 5.7498C24.4456 5.7498 24.8806 5.88176 25.2506 6.129C25.6206 6.37623 25.909 6.72763 26.0793 7.13876C26.2496 7.5499 26.2942 8.0023 26.2073 8.43876C26.1205 8.87521 25.9062 9.27612 25.5916 9.59079C25.2769 9.90546 24.876 10.1198 24.4395 10.2066C24.0031 10.2934 23.5507 10.2488 23.1395 10.0785C22.7284 9.90823 22.377 9.61985 22.1298 9.24984C21.8825 8.87983 21.7506 8.44481 21.7506 7.9998C21.7506 7.40307 21.9876 6.83077 22.4096 6.40881C22.8315 5.98686 23.4038 5.7498 24.0006 5.7498ZM29.0931 22.4373C28.6043 22.6529 28.2082 23.0354 27.9756 23.5164C27.7431 23.9973 27.6892 24.5453 27.8237 25.0623L32.1118 41.3748C32.1461 41.5037 32.1919 41.6292 32.2487 41.7498C32.2206 41.6898 32.1887 41.6298 32.155 41.5717L25.9468 30.8748C25.749 30.5338 25.4651 30.2508 25.1236 30.0541C24.782 29.8573 24.3948 29.7538 24.0006 29.7538C23.6064 29.7538 23.2191 29.8573 22.8776 30.0541C22.536 30.2508 22.2521 30.5338 22.0543 30.8748L15.8462 41.5717C15.8125 41.6298 15.7806 41.6898 15.7525 41.7498C15.8092 41.6292 15.855 41.5037 15.8893 41.3748L20.1775 25.0773C20.3119 24.5603 20.2581 24.0123 20.0255 23.5314C19.7929 23.0504 19.3968 22.6679 18.9081 22.4523L8.25058 17.7498H39.7506L29.0931 22.4373Z" fill="#8B5CF6"/>
</svg>
