<svg width="48" height="49" viewBox="0 0 48 49" fill="none" xmlns="http://www.w3.org/2000/svg">
<path d="M44.6532 13.7264L34.7738 3.84889C34.4256 3.50051 34.0121 3.22415 33.557 3.0356C33.102 2.84705 32.6142 2.75 32.1216 2.75C31.629 2.75 31.1413 2.84705 30.6862 3.0356C30.2311 3.22415 29.8177 3.50051 29.4694 3.84889L3.34693 29.9695C2.99855 30.3178 2.72219 30.7312 2.53364 31.1863C2.34509 31.6414 2.24805 32.1291 2.24805 32.6217C2.24805 33.1143 2.34509 33.602 2.53364 34.0571C2.72219 34.5122 2.99855 34.9256 3.34693 35.2739L13.2263 45.1514C13.5745 45.4998 13.988 45.7761 14.4431 45.9647C14.8982 46.1532 15.3859 46.2503 15.8785 46.2503C16.3711 46.2503 16.8588 46.1532 17.3139 45.9647C17.769 45.7761 18.1824 45.4998 18.5307 45.1514L44.6532 19.0308C45.0016 18.6825 45.2779 18.2691 45.4665 17.814C45.655 17.3589 45.7521 16.8712 45.7521 16.3786C45.7521 15.886 45.655 15.3982 45.4665 14.9432C45.2779 14.4881 45.0016 14.0746 44.6532 13.7264ZM15.8776 41.4389L7.06506 32.6264L12.0001 27.6876L16.4101 32.0976C16.8327 32.5203 17.406 32.7578 18.0038 32.7578C18.6016 32.7578 19.1749 32.5203 19.5976 32.0976C20.0202 31.6749 20.2577 31.1017 20.2577 30.5039C20.2577 29.9061 20.0202 29.3328 19.5976 28.9101L15.1876 24.5001L18.0001 21.6876L22.4082 26.0976C22.8309 26.5203 23.4042 26.7578 24.0019 26.7578C24.5997 26.7578 25.173 26.5203 25.5957 26.0976C26.0184 25.6749 26.2558 25.1017 26.2558 24.5039C26.2558 23.9061 26.0184 23.3328 25.5957 22.9101L21.1876 18.5001L24.0001 15.6876L28.4101 20.0976C28.8327 20.5203 29.406 20.7578 30.0038 20.7578C30.6016 20.7578 31.1749 20.5203 31.5976 20.0976C32.0202 19.6749 32.2577 19.1017 32.2577 18.5039C32.2577 17.9061 32.0202 17.3328 31.5976 16.9101L27.1876 12.5001L32.1282 7.56139L40.9407 16.3739L15.8776 41.4389Z" fill="#8B5CF6"/>
</svg>
