<svg width="121" height="28" viewBox="0 0 121 28" fill="none" xmlns="http://www.w3.org/2000/svg">
<mask id="mask0_351_83" style="mask-type:luminance" maskUnits="userSpaceOnUse" x="0" y="0" width="121" height="28">
<path d="M120.572 0.204346H0.572266V27.2242H120.572V0.204346Z" fill="white"/>
</mask>
<g mask="url(#mask0_351_83)">
<path d="M70.7791 22.2616C70.537 22.3825 70.2922 22.4981 70.0533 22.6252C68.8839 23.2473 67.6507 23.6271 66.3178 23.682C64.9634 23.7379 63.6652 23.5272 62.4194 22.9842C61.6712 22.6581 60.974 22.2487 60.3504 21.7255C58.7501 20.3829 57.7087 18.6845 57.334 16.6293C56.8383 13.9108 57.4974 11.4566 59.2563 9.32922C60.6769 7.61111 62.5449 6.64757 64.732 6.3311C66.7303 6.04194 68.5996 6.46933 70.3312 7.50578C70.4203 7.55913 70.5078 7.61516 70.6124 7.724C70.6789 8.08413 70.7686 8.3897 70.7725 8.69635C70.7888 10.003 70.7792 11.3099 70.781 12.6168C70.7811 12.7468 70.7926 12.8769 70.8008 13.0069C70.8188 13.2918 70.8371 13.5767 70.8572 13.8615C70.8697 14.0391 70.7688 14.0893 70.6071 14.055C70.4124 13.0925 70.0031 12.2714 69.3408 11.5872C67.6012 9.79051 64.6618 9.62618 62.7943 11.2457C61.4098 12.4463 60.8418 13.9514 61.1057 15.7685C61.4603 18.2106 63.7128 20.1195 66.4523 19.8024C68.6543 19.5475 70.3953 17.8267 70.6701 15.6662C70.8114 15.7983 70.8481 15.9324 70.805 16.102C70.7736 16.2257 70.7809 16.3606 70.7806 16.4905C70.7787 17.47 70.7825 18.4495 70.7764 19.4289C70.775 19.6475 70.7233 19.8661 70.7263 20.0843C70.7362 20.8102 70.7604 21.5358 70.7791 22.2616Z" fill="#5B5B8E"/>
<path d="M41.67 7.67989C42.7421 7.02578 43.8878 6.55445 45.1332 6.3756C46.3346 6.20306 47.5341 6.24961 48.708 6.5873C50.5476 7.1165 52.0847 8.11444 53.2595 9.63439C54.205 10.8577 54.8178 12.2326 55.0102 13.7802C55.3835 16.7837 54.4854 19.3565 52.2971 21.4258C50.9109 22.7366 49.2195 23.4727 47.3074 23.677C45.7486 23.8436 44.2586 23.6058 42.8338 22.9609C42.479 22.8002 42.1423 22.5995 41.7663 22.3768C41.6009 22.177 41.5835 21.99 41.5841 21.789C41.5882 20.1849 41.586 18.5809 41.5858 16.9769C41.5858 16.8595 41.5685 16.7379 41.5941 16.6263C41.6102 16.5565 41.6916 16.5017 41.7468 16.4691C41.9414 16.8788 42.1326 17.2598 42.3249 17.6401C42.3425 17.675 42.3658 17.7072 42.3888 17.739C43.6248 19.45 45.2996 20.0922 47.3578 19.7561C49.5712 19.3945 51.5419 17.191 51.2208 14.4534C50.8892 11.6257 48.2773 9.76631 45.6308 10.2186C43.945 10.5067 42.7476 11.44 42.011 12.9742C41.876 13.2553 41.7824 13.5563 41.6455 13.8257C41.6094 13.727 41.5874 13.6508 41.5873 13.5746C41.5856 11.7483 41.5845 9.92207 41.5901 8.09583C41.5905 7.9571 41.6422 7.81854 41.67 7.67989Z" fill="#5B5B8E"/>
<path d="M11.9164 7.72274C13.0413 6.96002 14.2898 6.51495 15.6272 6.33819C17.1203 6.14087 18.5729 6.34821 19.9608 6.93273C22.103 7.83495 23.6587 9.35584 24.6197 11.4744C25.0391 12.399 25.3194 13.373 25.3281 14.3925C25.3497 16.9322 25.3432 19.4722 25.3345 22.0121C25.3321 22.7258 24.7508 23.4047 24.012 23.6472C23.0492 23.9632 21.9616 23.4364 21.6094 22.3795C21.5532 22.211 21.5589 22.0176 21.5583 21.8356C21.5541 20.5394 21.5621 19.2432 21.5534 17.9471C21.5462 16.8739 21.5387 15.8002 21.501 14.7278C21.4268 12.6193 19.8096 10.7133 17.7562 10.2929C15.8527 9.90313 14.245 10.4226 12.9577 11.8887C12.5112 12.3972 12.2155 12.9922 11.9827 13.6604C11.7598 13.5784 11.7544 13.4056 11.7646 13.2349C11.7838 12.9105 11.8331 12.5868 11.8351 12.2626C11.8434 10.9146 11.8362 9.56648 11.8424 8.21843C11.8432 8.0531 11.8906 7.88796 11.9164 7.72274Z" fill="#5B5B8E"/>
<path d="M81.0529 18.5628C81.0513 19.663 81.0577 20.7239 81.0457 21.7846C81.0333 22.8758 80.1373 23.7531 79.0595 23.749C78.2212 23.7458 77.3623 23.0338 77.2189 22.2054C77.1746 21.9493 77.1575 21.6852 77.1584 21.4249C77.1698 18.086 77.1982 14.7471 77.199 11.4082C77.1997 8.44912 77.171 5.48999 77.1563 2.53085C77.1545 2.162 77.1853 1.79904 77.3631 1.46379C77.7929 0.65352 78.6806 0.223383 79.53 0.416385C80.3757 0.608537 81.0026 1.38126 81.0412 2.2971C81.0566 2.66318 81.0461 3.03039 81.0463 3.39709C81.0486 8.43923 81.0507 13.4814 81.0529 18.5628Z" fill="#8A88B2"/>
<path d="M101.597 16.2613C101.406 16.0484 101.415 15.7755 101.416 15.5243C101.418 15.0413 101.44 14.556 101.494 14.0762C101.618 12.9737 101.938 11.9277 102.457 10.9444C103.667 8.64968 105.534 7.18307 108.041 6.55407C108.67 6.39634 109.324 6.29498 109.971 6.26968C110.551 6.24696 111.144 6.32583 111.72 6.42742C113.149 6.67956 114.427 7.28729 115.566 8.18346C116.261 8.73004 116.822 9.39797 117.313 10.1322C118.075 11.272 118.537 12.5257 118.77 13.8692C118.801 14.0461 118.777 14.2326 118.741 14.439C118.464 14.1768 118.246 13.8674 117.977 13.6102C117.707 13.3513 117.4 13.1338 116.985 13.1349C116.177 13.1369 115.382 13.7045 115.119 14.4821C115.099 14.5421 115.025 14.5839 114.965 14.6041C114.852 14.0087 114.73 13.4553 114.486 12.9227C113.607 11.0092 111.327 9.87939 109.376 10.2126C107.504 10.5322 105.922 11.948 105.458 13.7838C105.288 14.4543 105.284 15.129 105.291 15.813C105.218 15.8413 105.146 15.8575 105.135 15.893C105.035 16.2097 104.771 16.3918 104.554 16.6096C104.345 16.8199 104.09 16.9331 103.783 16.9168C103.563 16.9051 103.341 16.8985 103.121 16.9145C102.648 16.949 102.266 16.764 101.919 16.4628C101.825 16.3806 101.705 16.3276 101.597 16.2613Z" fill="#8A88B2"/>
<path d="M101.586 16.298C101.703 16.3277 101.823 16.3807 101.918 16.4628C102.264 16.764 102.646 16.9491 103.12 16.9145C103.339 16.8986 103.562 16.9052 103.782 16.9168C104.089 16.9331 104.343 16.8199 104.553 16.6097C104.77 16.3919 105.033 16.2097 105.133 15.8931C105.144 15.8575 105.217 15.8414 105.29 15.8439C105.423 16.1758 105.515 16.4845 105.631 16.7836C106.429 18.8373 108.489 20.1281 110.848 19.8014C112.872 19.5211 114.473 17.9584 114.868 15.9625C114.903 15.783 114.927 15.6012 114.976 15.4099C114.985 15.3531 114.974 15.3069 114.961 15.2259C114.964 15.0055 114.969 14.8199 114.974 14.6342C115.023 14.5839 115.097 14.5421 115.117 14.4821C115.38 13.7045 116.175 13.137 116.983 13.1349C117.398 13.1338 117.705 13.3514 117.976 13.6102C118.244 13.8674 118.463 14.1768 118.724 14.4713C118.765 14.5621 118.785 14.6448 118.783 14.7818C118.774 15.0293 118.788 15.2225 118.801 15.4158C118.763 15.658 118.721 15.8997 118.688 16.1428C118.659 16.3613 118.66 16.5855 118.614 16.8001C118.318 18.192 117.714 19.4402 116.839 20.5591C115.868 21.7995 114.602 22.6256 113.15 23.1847C112.291 23.5156 111.396 23.6966 110.477 23.7279C108.229 23.8044 106.212 23.1369 104.507 21.6778C102.873 20.2793 101.87 18.4917 101.586 16.298Z" fill="#5B5B8E"/>
<path d="M41.7434 16.4401C41.6913 16.5017 41.6099 16.5565 41.5938 16.6264C41.5682 16.738 41.5855 16.8596 41.5855 16.9769C41.5857 18.581 41.5879 20.185 41.5837 21.789C41.5832 21.9901 41.6006 22.1771 41.7404 22.3651C41.7129 22.526 41.6541 22.6578 41.6515 22.7906C41.6396 23.406 41.6541 24.0219 41.6393 24.6372C41.6119 25.7725 40.6697 26.6381 39.6303 26.646C38.8703 26.6518 38.0683 26.0903 37.8085 25.3728C37.7034 25.0825 37.6101 24.767 37.6095 24.4628C37.5995 19.3417 37.6039 14.2206 37.6093 9.09947C37.6097 8.7205 37.6314 8.34074 37.6619 7.96284C37.6959 7.54106 37.8992 7.18476 38.1787 6.88434C39.2691 5.71202 40.9063 6.25228 41.3783 7.29547C41.4358 7.4224 41.54 7.52809 41.6461 7.66179C41.6419 7.8186 41.5902 7.95716 41.5898 8.0959C41.5842 9.92213 41.5853 11.7484 41.587 13.5746C41.5871 13.6508 41.6091 13.727 41.6472 13.8608C41.6263 14.5012 41.5554 15.0831 41.6501 15.6687C41.6914 15.9242 41.7129 16.1829 41.7434 16.4401Z" fill="#8A88B2"/>
<path d="M83.6917 16.5114C83.6783 16.4296 83.6649 16.3478 83.6725 16.22C83.6792 16.1054 83.6649 16.0369 83.6506 15.9684C83.6357 13.8442 84.2932 11.9547 85.6434 10.3165C86.9859 8.6876 88.7143 7.68093 90.7788 7.31112C93.1961 6.87815 95.4316 7.38376 97.4218 8.84242C97.9143 9.20336 98.3658 9.62978 98.7932 10.0681C99.5224 10.816 99.5148 11.7341 99.0203 12.4717C98.3617 13.454 96.9018 13.5911 96.031 12.7502C95.6446 12.3771 95.2607 12.01 94.7977 11.7263C92.3527 10.228 89.0921 11.2509 87.9208 13.8893C87.6515 14.4959 87.4858 15.1199 87.4865 15.7865C87.4867 15.9295 87.4593 16.0727 87.415 16.2633C87.2541 16.7553 86.9437 17.0701 86.6094 17.3616C86.4206 17.5261 86.1993 17.6329 85.9345 17.619C85.7789 17.6108 85.622 17.6106 85.4666 17.6208C84.8165 17.6637 84.3484 17.3745 83.9994 16.8435C83.9177 16.7191 83.7953 16.6214 83.6917 16.5114Z" fill="#5B5B8E"/>
<path d="M11.9069 7.69691C11.8904 7.88787 11.843 8.05301 11.8423 8.21834C11.836 9.56639 11.8433 10.9145 11.8349 12.2625C11.8329 12.5867 11.7836 12.9104 11.7644 13.2349C11.7543 13.4056 11.7596 13.5783 11.9671 13.6839C11.8707 14.3055 11.8261 14.9282 11.8282 15.5581C11.8351 17.6791 11.7887 19.8012 11.8446 21.9207C11.8806 23.2866 10.1793 24.174 9.16598 23.6742C8.25566 23.2252 7.88237 22.5039 7.86469 21.5734C7.83162 19.8327 7.85152 18.0909 7.85286 16.3496C7.85476 13.8752 7.85511 11.4007 7.86754 8.92622C7.86996 8.44463 7.87266 7.95153 8.06455 7.49792C8.59932 6.23384 10.113 5.77933 11.1639 6.711C11.4596 6.97316 11.6558 7.348 11.9069 7.69691Z" fill="#8A88B2"/>
<path d="M1.86462 14.4748C1.86259 13.0998 1.86401 11.7641 1.85683 10.4284C1.85401 9.90524 1.82216 9.38221 1.822 8.85913C1.82189 8.50663 1.84323 8.15313 1.87502 7.80189C1.90578 7.46198 2.08423 7.18149 2.31361 6.94385C2.89033 6.34637 3.58029 6.12629 4.38344 6.3989C5.13487 6.65396 5.6602 7.38252 5.69935 8.18626C5.70317 8.26468 5.70193 8.34338 5.70196 8.42194C5.70335 12.8089 5.7041 17.1958 5.70668 21.5828C5.70695 22.0514 5.61214 22.4916 5.3489 22.8856C4.87373 23.5968 3.78197 24.0807 2.78768 23.4732C2.14231 23.0789 1.807 22.4716 1.81458 21.7013C1.82347 20.7984 1.8484 19.8957 1.85669 18.9928C1.86521 18.063 1.86241 17.1332 1.8639 16.2035C1.8648 15.6404 1.86443 15.0773 1.86462 14.4748Z" fill="#8A88B2"/>
<path d="M83.6875 16.5435C83.7966 16.6214 83.9189 16.719 84.0006 16.8434C84.3496 17.3745 84.8177 17.6637 85.4678 17.6208C85.6232 17.6105 85.7802 17.6108 85.9358 17.619C86.2006 17.6329 86.4219 17.5261 86.6106 17.3615C86.945 17.0701 87.2554 16.7552 87.4101 16.2952C87.5964 16.9378 87.7258 17.6069 88.0645 18.2078C88.8161 19.5416 89.9445 20.3913 91.4395 20.6623C93.1042 20.9642 94.5695 20.4914 95.7741 19.282C96.1309 18.9238 96.5032 18.6125 97.0232 18.5242C98.3526 18.2986 99.4588 19.2548 99.3482 20.5735C99.3103 21.0256 99.1073 21.4038 98.8084 21.7245C97.3371 23.3021 95.5446 24.2709 93.395 24.5395C90.9459 24.8456 88.7677 24.1873 86.8401 22.6624C85.2689 21.4195 84.3333 19.7727 83.8455 17.8562C83.7402 17.4423 83.7339 17.0031 83.6875 16.5435Z" fill="#8A88B2"/>
<path d="M70.6172 14.0841C70.7706 14.0893 70.8715 14.0391 70.859 13.8615C70.8389 13.5767 70.8207 13.2918 70.8027 13.0069C70.7945 12.8769 70.783 12.7468 70.7828 12.6168C70.7811 11.3099 70.7907 10.003 70.7743 8.69635C70.7705 8.3897 70.6807 8.08413 70.6274 7.74724C70.6793 7.65567 70.7587 7.60416 70.7857 7.53277C71.07 6.78318 71.7948 6.25193 72.5769 6.23043C73.443 6.20662 74.1398 6.63929 74.4724 7.42217C74.5269 7.5503 74.551 7.69916 74.5552 7.83944C74.5683 8.28235 74.5679 8.72573 74.568 9.16893C74.5683 13.0284 74.5674 16.8879 74.5673 20.7474C74.5673 21.2037 74.5845 21.6606 74.5685 22.1164C74.5491 22.6684 74.2567 23.0918 73.8221 23.3891C72.7313 24.1355 71.7477 23.839 71.0116 22.8954C70.8897 22.7392 70.8555 22.5142 70.7809 22.2913C70.7622 21.5358 70.738 20.8101 70.7281 20.0843C70.7252 19.8661 70.7768 19.6475 70.7782 19.4289C70.7843 18.4495 70.7805 17.47 70.7824 16.4905C70.7827 16.3606 70.7754 16.2257 70.8068 16.102C70.85 15.9324 70.8133 15.7983 70.6637 15.6358C70.6232 15.0924 70.6202 14.5883 70.6172 14.0841Z" fill="#8A88B2"/>
<path d="M30.0491 16.9234C29.7485 16.9203 29.4867 16.923 29.2255 16.9134C28.4049 16.8831 27.7442 16.3589 27.5013 15.5512C27.2736 14.7944 27.576 13.91 28.2073 13.453C28.55 13.2049 28.9345 13.0931 29.3472 13.0905C30.6418 13.0822 31.9367 13.0688 33.2309 13.0899C34.2358 13.1062 35.0446 13.9725 35.0478 14.9906C35.0509 15.9803 34.3029 16.9127 33.2267 16.9146C32.1806 16.9165 31.1344 16.9205 30.0491 16.9234Z" fill="#8A88B2"/>
<path d="M3.18184 5.0831C1.91673 4.62706 1.59759 3.39126 1.91519 2.33628C2.1737 1.47756 3.09892 0.875709 3.93677 0.97815C4.86011 1.09105 5.61138 1.87693 5.69326 2.81559C5.7803 3.81331 5.33508 4.6393 4.50961 5.00549C4.08824 5.19241 3.65522 5.23441 3.18184 5.0831Z" fill="#5B5B8E"/>
</g>
</svg>
