<svg width="48" height="48" viewBox="0 0 48 48" fill="none" xmlns="http://www.w3.org/2000/svg">
<rect width="48" height="48" rx="24" fill="white"/>
<path d="M23.6425 23.5102C23.8981 23.4369 24.1555 23.3697 24.4089 23.2894C25.5271 22.935 26.6683 22.7445 27.8421 22.8399C28.8282 22.9201 29.7412 23.2256 30.5606 23.7977C30.8052 23.9685 31.0706 24.1094 31.3427 24.2849C31.2729 24.4502 31.4114 24.5009 31.4755 24.5798C31.6853 24.8381 31.9148 25.0822 32.1046 25.3544C32.2557 25.571 32.351 25.8259 32.4873 26.054C32.6052 26.2513 32.746 26.4348 32.8766 26.6243C32.8893 26.7772 32.873 26.9395 32.9192 27.0813C33.3361 28.3601 33.34 29.6699 33.2155 30.9871C33.0368 32.8773 32.2346 34.5217 31.1889 36.065C30.5498 37.0081 29.8105 37.8661 28.9742 38.6387C27.342 40.1466 25.4658 41.2049 23.2922 41.6929C21.8633 42.0136 20.4284 42.0249 18.9935 41.7002C18.1698 41.5137 17.3659 41.2744 16.6285 40.8541C14.8211 39.8237 13.7612 38.2967 13.5378 36.1977C13.4076 34.9749 13.573 33.7955 13.9901 32.6531C14.2787 31.8629 14.6125 31.0882 14.9512 30.3177C15.2992 29.5258 15.69 28.7527 16.0396 27.9614C16.4398 27.0558 16.7833 26.1287 16.9436 25.1444C17.3421 22.6969 16.7812 20.5021 15.2058 18.5835C13.7697 16.8344 11.9269 15.6765 9.82446 14.9078C9.3617 14.7385 8.88767 14.6006 8.42278 14.437C7.82164 14.2253 7.48659 13.7509 7.49076 13.1398C7.49538 12.4633 7.89801 11.8672 8.47983 11.6731C8.73229 11.5889 8.98642 11.5871 9.24076 11.658C10.8372 12.1037 12.358 12.7368 13.7651 13.6129C15.1928 14.5019 16.4676 15.5795 17.5078 16.9173C18.5636 18.2752 19.3376 19.7736 19.6846 21.4681C19.8172 22.1154 19.8645 22.7802 19.9473 23.4994C19.943 23.8533 19.9505 24.1452 19.9388 24.4363C19.9274 24.7205 19.8964 25.0039 19.8685 25.359C20.0679 25.2621 20.2052 25.1964 20.3416 25.1288C21.3401 24.634 22.3387 24.1394 23.3363 23.6429C23.415 23.6038 23.4869 23.5511 23.5715 23.5176C23.6022 23.522 23.6235 23.5136 23.645 23.5068C23.6452 23.5084 23.6425 23.5102 23.6425 23.5102ZM16.308 35.1173C16.3306 35.427 16.3244 35.742 16.3817 36.045C16.495 36.6438 16.7628 37.1801 17.1426 37.6554C17.1882 37.7125 17.294 37.7212 17.3684 37.8037C17.4327 37.887 17.4834 37.9879 17.5636 38.0509C18.2296 38.5743 19.019 38.7819 19.8336 38.901C20.6236 39.0166 21.4182 39.0063 22.2116 38.9119C23.3513 38.7764 24.4148 38.4148 25.3958 37.8187C26.3438 37.2426 27.1512 36.5048 27.8613 35.6517C28.7361 34.6006 29.4788 33.4698 29.9774 32.1903C30.4452 30.9899 30.6672 29.7717 30.1639 28.469C30.1127 28.3716 30.0784 28.2591 30.0077 28.1791C29.6099 27.7292 29.1939 27.2937 28.7034 26.9462C28.4568 26.7715 28.235 26.5152 27.8609 26.5018C27.7365 26.4564 27.6153 26.3968 27.4872 26.3682C27.0298 26.2659 26.574 26.1321 26.1102 26.0879C25.3072 26.0113 24.5321 26.1794 23.7822 26.477C22.9146 26.8212 22.0924 27.252 21.3246 27.7805C20.338 28.4596 19.3617 29.154 18.3895 29.8538C18.2399 29.9615 18.0995 30.1151 18.0178 30.279C17.5075 31.302 16.9561 32.3075 16.6179 33.4082C16.4529 33.9454 16.323 34.4894 16.308 35.1173Z" fill="#E97D43"/>
<path d="M32.8988 26.6186C32.7459 26.4348 32.6051 26.2513 32.4873 26.054C32.3509 25.8259 32.2557 25.571 32.1046 25.3544C31.9148 25.0822 31.6853 24.8381 31.4754 24.5798C31.4113 24.5008 31.2728 24.4502 31.3677 24.2871C33.0438 23.2019 34.7672 22.2479 36.6559 21.627C37.2862 21.4199 37.9277 21.262 38.5948 21.2476C38.9655 21.2396 39.3364 21.2608 39.6831 21.4118C40.4133 21.7298 40.7274 22.3326 40.7832 23.0913C40.8355 23.8029 40.7643 24.5077 40.5744 25.1955C40.2054 26.5315 39.6935 27.8163 39.095 29.0618C38.0273 31.2836 37.2105 33.6037 36.3576 35.9105C35.7734 37.4906 35.185 39.0692 34.5965 40.6476C34.4411 41.0644 34.2487 41.4516 33.8194 41.6635C33.2926 41.9234 32.4866 41.9251 31.9478 41.3018C31.7138 41.0311 31.6524 40.6961 31.7509 40.3499C31.8368 40.0478 31.949 39.7534 32.048 39.455C32.7656 37.2907 33.4839 35.1267 34.1999 32.9619C34.8491 30.999 35.5116 29.0405 36.3614 27.1537C36.7395 26.3143 37.1609 25.4946 37.5604 24.6649C37.6204 24.5401 37.668 24.4093 37.7432 24.2287C37.615 24.2544 37.5437 24.2497 37.4958 24.2811C36.8713 24.6908 36.1741 24.9459 35.4877 25.218C34.5743 25.58 33.7495 26.098 32.8988 26.6186Z" fill="#D85C36"/>
<path d="M18.0645 14.2463C17.5876 13.3323 17.3318 12.3826 17.3463 11.3765C17.3688 9.81306 17.8409 8.41626 18.9718 7.29449C20.253 6.02364 22.373 6.04588 23.6346 7.3354C24.2364 7.95054 24.614 8.69433 24.8797 9.50525C25.4934 11.3776 25.1788 13.1224 24.1312 14.7465C23.6433 15.503 22.9668 16.0447 22.0634 16.2525C20.9203 16.5155 19.9134 16.2523 19.0385 15.474C18.6493 15.1278 18.3424 14.7139 18.0645 14.2463ZM22.3534 11.8431C22.4484 11.3821 22.3881 10.9262 22.2896 10.4762C22.2004 10.0687 22.0838 9.66636 21.7563 9.37346C21.4599 9.10847 21.1647 9.10059 20.8497 9.34022C20.5875 9.53958 20.4349 9.8184 20.3552 10.1243C20.2681 10.4589 20.1933 10.8044 20.177 11.1483C20.1486 11.7452 20.2103 12.337 20.4675 12.8913C20.5955 13.1671 20.7971 13.3677 21.063 13.5098C21.2024 13.5843 21.3323 13.5871 21.478 13.5169C21.8116 13.3562 22.0336 13.0956 22.1434 12.7514C22.2317 12.4748 22.2794 12.1851 22.3534 11.8431Z" fill="#E97D43"/>
<path d="M23.5622 23.5047C23.4871 23.5511 23.4152 23.6038 23.3365 23.6429C22.3389 24.1394 21.3403 24.634 20.3418 25.1288C20.2054 25.1964 20.0681 25.2621 19.8687 25.359C19.8966 25.0039 19.9276 24.7205 19.939 24.4363C19.9507 24.1452 19.9432 23.8533 19.9448 23.5292C20.0132 23.4449 20.098 23.4058 20.1462 23.3398C21.1195 22.0063 22.1044 20.6809 23.0538 19.3304C23.8946 18.1344 24.6281 16.8693 25.2765 15.5579C25.8604 14.377 26.3619 13.1621 26.6279 11.8634C26.7044 11.4896 26.7647 11.1115 26.8128 10.7329C26.9412 9.72253 27.7481 9.14672 28.7279 9.37646C29.2786 9.5056 29.6518 9.97668 29.6079 10.5656C29.5654 11.1361 29.4979 11.7084 29.3892 12.2698C29.0557 13.9924 28.4213 15.6106 27.6452 17.1772C26.6386 19.2093 25.3905 21.0886 24.0533 22.9119C23.9166 23.0983 23.7711 23.2781 23.6362 23.4856C23.6427 23.5102 23.6454 23.5084 23.6245 23.5041C23.5898 23.5013 23.576 23.503 23.5622 23.5047Z" fill="#D85C36"/>
<path d="M30.1646 28.494C30.0765 28.56 29.979 28.5883 29.9004 28.6438C28.7093 29.4847 27.5115 30.3167 26.3332 31.1755C23.904 32.946 21.4852 34.7307 19.063 36.5109C18.5118 36.916 17.9642 37.3261 17.3934 37.7432C17.2941 37.7212 17.1883 37.7125 17.1426 37.6554C16.7628 37.1801 16.4951 36.6438 16.3818 36.045C16.3245 35.742 16.3306 35.4269 16.3281 35.076C17.1548 34.4284 17.9639 33.8254 18.7676 33.2152C21.4106 31.2083 24.0437 29.1877 26.7656 27.2881C27.1323 27.0322 27.5104 26.7927 27.8832 26.5456C28.235 26.5152 28.4569 26.7715 28.7035 26.9462C29.194 27.2936 29.6099 27.7292 30.0077 28.1791C30.0785 28.2591 30.1128 28.3716 30.1646 28.494Z" fill="#D85C36"/>
</svg>
